<mxfile host="app.diagrams.net" modified="2024-04-11T10:37:52.174Z" agent="Mozilla/5.0 (Windows NT 10.0; Win64; x64) AppleWebKit/537.36 (KHTML, like Gecko) Chrome/123.0.0.0 Safari/537.36" etag="tbfjDb_-dy8EJP4nhTHp" version="24.2.3" type="device" pages="2">
  <diagram name="Pagina-1" id="1FFT8CL7EdeJG9rm2vaP">
    <mxGraphModel dx="1808" dy="652" grid="1" gridSize="10" guides="1" tooltips="1" connect="1" arrows="1" fold="1" page="1" pageScale="1" pageWidth="1500" pageHeight="500" math="1" shadow="0">
      <root>
        <mxCell id="0" />
        <mxCell id="1" parent="0" />
        <mxCell id="kqU26M08DJfGydk8MjjA-17" value="" style="rounded=1;whiteSpace=wrap;html=1;fillColor=none;" parent="1" vertex="1">
          <mxGeometry x="490" y="120" width="580" height="140" as="geometry" />
        </mxCell>
        <mxCell id="kqU26M08DJfGydk8MjjA-4" value="" style="rounded=0;whiteSpace=wrap;html=1;fillColor=#f8cecc;strokeColor=default;strokeWidth=2;" parent="1" vertex="1">
          <mxGeometry x="590" y="150" width="120" height="20" as="geometry" />
        </mxCell>
        <mxCell id="kqU26M08DJfGydk8MjjA-5" value="" style="rounded=0;whiteSpace=wrap;html=1;fillColor=#dae8fc;strokeColor=default;strokeWidth=2;" parent="1" vertex="1">
          <mxGeometry x="750" y="150" width="120" height="20" as="geometry" />
        </mxCell>
        <mxCell id="kqU26M08DJfGydk8MjjA-6" value="" style="rounded=0;whiteSpace=wrap;html=1;fillColor=#d5e8d4;strokeColor=default;strokeWidth=2;" parent="1" vertex="1">
          <mxGeometry x="910" y="150" width="120" height="20" as="geometry" />
        </mxCell>
        <mxCell id="kqU26M08DJfGydk8MjjA-7" value="" style="rounded=0;whiteSpace=wrap;html=1;fillColor=#f8cecc;strokeColor=default;strokeWidth=2;dashed=1;" parent="1" vertex="1">
          <mxGeometry x="590" y="180" width="120" height="20" as="geometry" />
        </mxCell>
        <mxCell id="kqU26M08DJfGydk8MjjA-8" value="" style="rounded=0;whiteSpace=wrap;html=1;fillColor=#dae8fc;strokeColor=default;strokeWidth=2;dashed=1;" parent="1" vertex="1">
          <mxGeometry x="750" y="180" width="120" height="20" as="geometry" />
        </mxCell>
        <mxCell id="kqU26M08DJfGydk8MjjA-9" value="" style="rounded=0;whiteSpace=wrap;html=1;fillColor=#d5e8d4;strokeColor=default;strokeWidth=2;dashed=1;" parent="1" vertex="1">
          <mxGeometry x="910" y="180" width="120" height="20" as="geometry" />
        </mxCell>
        <mxCell id="kqU26M08DJfGydk8MjjA-10" value="" style="rounded=0;whiteSpace=wrap;html=1;fillColor=#f8cecc;strokeColor=default;strokeWidth=2;dashed=1;dashPattern=1 2;" parent="1" vertex="1">
          <mxGeometry x="590" y="211" width="120" height="20" as="geometry" />
        </mxCell>
        <mxCell id="kqU26M08DJfGydk8MjjA-11" value="" style="rounded=0;whiteSpace=wrap;html=1;fillColor=#dae8fc;strokeColor=default;strokeWidth=2;dashed=1;dashPattern=1 2;" parent="1" vertex="1">
          <mxGeometry x="750" y="211" width="120" height="20" as="geometry" />
        </mxCell>
        <mxCell id="kqU26M08DJfGydk8MjjA-12" value="" style="rounded=0;whiteSpace=wrap;html=1;fillColor=#d5e8d4;strokeColor=default;strokeWidth=2;dashed=1;dashPattern=1 2;" parent="1" vertex="1">
          <mxGeometry x="910" y="211" width="120" height="20" as="geometry" />
        </mxCell>
        <mxCell id="kqU26M08DJfGydk8MjjA-13" value="&lt;font style=&quot;font-size: 14px;&quot;&gt;Queries&lt;/font&gt;" style="text;html=1;strokeColor=none;fillColor=none;align=right;verticalAlign=middle;whiteSpace=wrap;rounded=0;" parent="1" vertex="1">
          <mxGeometry x="510" y="145" width="60" height="30" as="geometry" />
        </mxCell>
        <mxCell id="kqU26M08DJfGydk8MjjA-14" value="&lt;font style=&quot;font-size: 14px;&quot;&gt;Keys&lt;/font&gt;" style="text;html=1;strokeColor=none;fillColor=none;align=right;verticalAlign=middle;whiteSpace=wrap;rounded=0;" parent="1" vertex="1">
          <mxGeometry x="510" y="175" width="60" height="30" as="geometry" />
        </mxCell>
        <mxCell id="kqU26M08DJfGydk8MjjA-15" value="&lt;font style=&quot;font-size: 14px;&quot;&gt;Values&lt;/font&gt;" style="text;html=1;strokeColor=none;fillColor=none;align=right;verticalAlign=middle;whiteSpace=wrap;rounded=0;" parent="1" vertex="1">
          <mxGeometry x="510" y="205" width="60" height="30" as="geometry" />
        </mxCell>
        <mxCell id="kqU26M08DJfGydk8MjjA-18" value="" style="rounded=0;whiteSpace=wrap;html=1;fillColor=#f8cecc;strokeColor=default;strokeWidth=2;" parent="1" vertex="1">
          <mxGeometry x="452.5" y="310" width="120" height="20" as="geometry" />
        </mxCell>
        <mxCell id="kqU26M08DJfGydk8MjjA-19" value="" style="rounded=0;whiteSpace=wrap;html=1;fillColor=#dae8fc;strokeColor=default;strokeWidth=2;" parent="1" vertex="1">
          <mxGeometry x="452.5" y="330" width="120" height="20" as="geometry" />
        </mxCell>
        <mxCell id="kqU26M08DJfGydk8MjjA-20" value="" style="rounded=0;whiteSpace=wrap;html=1;fillColor=#d5e8d4;strokeColor=default;strokeWidth=2;" parent="1" vertex="1">
          <mxGeometry x="452.5" y="350" width="120" height="20" as="geometry" />
        </mxCell>
        <mxCell id="kqU26M08DJfGydk8MjjA-22" value="" style="rounded=0;whiteSpace=wrap;html=1;fillColor=#f8cecc;strokeColor=default;strokeWidth=2;dashed=1;rotation=90;" parent="1" vertex="1">
          <mxGeometry x="542.5" y="330" width="120" height="20" as="geometry" />
        </mxCell>
        <mxCell id="kqU26M08DJfGydk8MjjA-23" value="" style="rounded=0;whiteSpace=wrap;html=1;fillColor=#dae8fc;strokeColor=default;strokeWidth=2;dashed=1;rotation=90;" parent="1" vertex="1">
          <mxGeometry x="562.5" y="330" width="120" height="20" as="geometry" />
        </mxCell>
        <mxCell id="kqU26M08DJfGydk8MjjA-35" value="" style="edgeStyle=orthogonalEdgeStyle;rounded=0;orthogonalLoop=1;jettySize=auto;html=1;entryX=0;entryY=0.5;entryDx=0;entryDy=0;" parent="1" source="kqU26M08DJfGydk8MjjA-24" target="kqU26M08DJfGydk8MjjA-29" edge="1">
          <mxGeometry relative="1" as="geometry" />
        </mxCell>
        <mxCell id="kqU26M08DJfGydk8MjjA-24" value="" style="rounded=0;whiteSpace=wrap;html=1;fillColor=#d5e8d4;strokeColor=default;strokeWidth=2;dashed=1;rotation=90;" parent="1" vertex="1">
          <mxGeometry x="582.5" y="330" width="120" height="20" as="geometry" />
        </mxCell>
        <mxCell id="kqU26M08DJfGydk8MjjA-26" value="" style="whiteSpace=wrap;html=1;aspect=fixed;strokeColor=default;strokeWidth=2;" parent="1" vertex="1">
          <mxGeometry x="695.5" y="310" width="20" height="20" as="geometry" />
        </mxCell>
        <mxCell id="kqU26M08DJfGydk8MjjA-27" value="" style="whiteSpace=wrap;html=1;aspect=fixed;strokeColor=default;strokeWidth=2;" parent="1" vertex="1">
          <mxGeometry x="715.5" y="310" width="20" height="20" as="geometry" />
        </mxCell>
        <mxCell id="kqU26M08DJfGydk8MjjA-28" value="" style="whiteSpace=wrap;html=1;aspect=fixed;strokeColor=default;strokeWidth=2;" parent="1" vertex="1">
          <mxGeometry x="735.5" y="310" width="20" height="20" as="geometry" />
        </mxCell>
        <mxCell id="kqU26M08DJfGydk8MjjA-29" value="" style="whiteSpace=wrap;html=1;aspect=fixed;strokeColor=default;strokeWidth=2;" parent="1" vertex="1">
          <mxGeometry x="695.5" y="330" width="20" height="20" as="geometry" />
        </mxCell>
        <mxCell id="kqU26M08DJfGydk8MjjA-30" value="" style="whiteSpace=wrap;html=1;aspect=fixed;strokeColor=default;strokeWidth=2;" parent="1" vertex="1">
          <mxGeometry x="715.5" y="330" width="20" height="20" as="geometry" />
        </mxCell>
        <mxCell id="kqU26M08DJfGydk8MjjA-31" value="" style="whiteSpace=wrap;html=1;aspect=fixed;strokeColor=default;strokeWidth=2;" parent="1" vertex="1">
          <mxGeometry x="735.5" y="330" width="20" height="20" as="geometry" />
        </mxCell>
        <mxCell id="kqU26M08DJfGydk8MjjA-32" value="" style="whiteSpace=wrap;html=1;aspect=fixed;strokeColor=default;strokeWidth=2;" parent="1" vertex="1">
          <mxGeometry x="695.5" y="350" width="20" height="20" as="geometry" />
        </mxCell>
        <mxCell id="kqU26M08DJfGydk8MjjA-33" value="" style="whiteSpace=wrap;html=1;aspect=fixed;strokeColor=default;strokeWidth=2;" parent="1" vertex="1">
          <mxGeometry x="715.5" y="350" width="20" height="20" as="geometry" />
        </mxCell>
        <mxCell id="kqU26M08DJfGydk8MjjA-34" value="" style="whiteSpace=wrap;html=1;aspect=fixed;strokeColor=default;strokeWidth=2;" parent="1" vertex="1">
          <mxGeometry x="735.5" y="350" width="20" height="20" as="geometry" />
        </mxCell>
        <mxCell id="kqU26M08DJfGydk8MjjA-36" value="Softmax" style="rounded=1;whiteSpace=wrap;html=1;strokeColor=default;strokeWidth=2;rotation=90;" parent="1" vertex="1">
          <mxGeometry x="728.5" y="325" width="105" height="30" as="geometry" />
        </mxCell>
        <mxCell id="kqU26M08DJfGydk8MjjA-37" value="" style="whiteSpace=wrap;html=1;aspect=fixed;strokeColor=default;strokeWidth=2;fillColor=#000000;" parent="1" vertex="1">
          <mxGeometry x="808.5" y="310" width="20" height="20" as="geometry" />
        </mxCell>
        <mxCell id="kqU26M08DJfGydk8MjjA-38" value="" style="whiteSpace=wrap;html=1;aspect=fixed;strokeColor=default;strokeWidth=2;" parent="1" vertex="1">
          <mxGeometry x="828.5" y="310" width="20" height="20" as="geometry" />
        </mxCell>
        <mxCell id="kqU26M08DJfGydk8MjjA-39" value="" style="whiteSpace=wrap;html=1;aspect=fixed;strokeColor=default;strokeWidth=2;" parent="1" vertex="1">
          <mxGeometry x="848.5" y="310" width="20" height="20" as="geometry" />
        </mxCell>
        <mxCell id="kqU26M08DJfGydk8MjjA-40" value="" style="whiteSpace=wrap;html=1;aspect=fixed;strokeColor=default;strokeWidth=2;fillColor=#E3E3E3;" parent="1" vertex="1">
          <mxGeometry x="808.5" y="330" width="20" height="20" as="geometry" />
        </mxCell>
        <mxCell id="kqU26M08DJfGydk8MjjA-41" value="" style="whiteSpace=wrap;html=1;aspect=fixed;strokeColor=default;strokeWidth=2;" parent="1" vertex="1">
          <mxGeometry x="828.5" y="330" width="20" height="20" as="geometry" />
        </mxCell>
        <mxCell id="kqU26M08DJfGydk8MjjA-42" value="" style="whiteSpace=wrap;html=1;aspect=fixed;strokeColor=default;strokeWidth=2;fillColor=#BFBFBF;" parent="1" vertex="1">
          <mxGeometry x="848.5" y="330" width="20" height="20" as="geometry" />
        </mxCell>
        <mxCell id="kqU26M08DJfGydk8MjjA-43" value="" style="whiteSpace=wrap;html=1;aspect=fixed;strokeColor=default;strokeWidth=2;" parent="1" vertex="1">
          <mxGeometry x="808.5" y="350" width="20" height="20" as="geometry" />
        </mxCell>
        <mxCell id="kqU26M08DJfGydk8MjjA-44" value="" style="whiteSpace=wrap;html=1;aspect=fixed;strokeColor=default;strokeWidth=2;fillColor=#828282;" parent="1" vertex="1">
          <mxGeometry x="828.5" y="350" width="20" height="20" as="geometry" />
        </mxCell>
        <mxCell id="kqU26M08DJfGydk8MjjA-45" value="" style="whiteSpace=wrap;html=1;aspect=fixed;strokeColor=default;strokeWidth=2;fillColor=#E3E3E3;" parent="1" vertex="1">
          <mxGeometry x="848.5" y="350" width="20" height="20" as="geometry" />
        </mxCell>
        <mxCell id="kqU26M08DJfGydk8MjjA-46" value="" style="rounded=0;whiteSpace=wrap;html=1;fillColor=#f8cecc;strokeColor=default;strokeWidth=2;dashed=1;dashPattern=1 2;" parent="1" vertex="1">
          <mxGeometry x="878.5" y="310" width="120" height="20" as="geometry" />
        </mxCell>
        <mxCell id="kqU26M08DJfGydk8MjjA-52" value="" style="edgeStyle=orthogonalEdgeStyle;rounded=0;orthogonalLoop=1;jettySize=auto;html=1;entryX=0.001;entryY=0.461;entryDx=0;entryDy=0;entryPerimeter=0;" parent="1" source="kqU26M08DJfGydk8MjjA-47" target="kqU26M08DJfGydk8MjjA-50" edge="1">
          <mxGeometry relative="1" as="geometry" />
        </mxCell>
        <mxCell id="kqU26M08DJfGydk8MjjA-47" value="" style="rounded=0;whiteSpace=wrap;html=1;fillColor=#dae8fc;strokeColor=default;strokeWidth=2;dashed=1;dashPattern=1 2;" parent="1" vertex="1">
          <mxGeometry x="878.5" y="330" width="120" height="20" as="geometry" />
        </mxCell>
        <mxCell id="kqU26M08DJfGydk8MjjA-48" value="" style="rounded=0;whiteSpace=wrap;html=1;fillColor=#d5e8d4;strokeColor=default;strokeWidth=2;dashed=1;dashPattern=1 2;" parent="1" vertex="1">
          <mxGeometry x="878.5" y="350" width="120" height="20" as="geometry" />
        </mxCell>
        <mxCell id="kqU26M08DJfGydk8MjjA-49" value="" style="rounded=0;whiteSpace=wrap;html=1;strokeWidth=2;" parent="1" vertex="1">
          <mxGeometry x="1038.5" y="311" width="120" height="20" as="geometry" />
        </mxCell>
        <mxCell id="kqU26M08DJfGydk8MjjA-50" value="" style="rounded=0;whiteSpace=wrap;html=1;strokeWidth=2;" parent="1" vertex="1">
          <mxGeometry x="1038.5" y="331" width="120" height="20" as="geometry" />
        </mxCell>
        <mxCell id="kqU26M08DJfGydk8MjjA-51" value="" style="rounded=0;whiteSpace=wrap;html=1;strokeWidth=2;" parent="1" vertex="1">
          <mxGeometry x="1038.5" y="351" width="120" height="20" as="geometry" />
        </mxCell>
        <mxCell id="kqU26M08DJfGydk8MjjA-53" value="" style="shape=curlyBracket;whiteSpace=wrap;html=1;rounded=1;flipH=1;labelPosition=right;verticalLabelPosition=middle;align=left;verticalAlign=middle;rotation=90;strokeWidth=2;" parent="1" vertex="1">
          <mxGeometry x="828.5" y="355" width="20" height="70" as="geometry" />
        </mxCell>
        <mxCell id="kqU26M08DJfGydk8MjjA-54" value="&lt;span style=&quot;font-size: 14px;&quot;&gt;Row-normalized&lt;/span&gt;" style="text;html=1;strokeColor=none;fillColor=none;align=center;verticalAlign=middle;whiteSpace=wrap;rounded=0;" parent="1" vertex="1">
          <mxGeometry x="777.75" y="400" width="121.5" height="30" as="geometry" />
        </mxCell>
        <mxCell id="kqU26M08DJfGydk8MjjA-56" value="$$\mathbf{Q}$$" style="text;html=1;strokeColor=none;fillColor=none;align=center;verticalAlign=middle;whiteSpace=wrap;rounded=0;fontSize=39;" parent="1" vertex="1">
          <mxGeometry x="482.5" y="425" width="60" height="30" as="geometry" />
        </mxCell>
        <mxCell id="kqU26M08DJfGydk8MjjA-57" value="$$\mathbf{K}^\top$$" style="text;html=1;strokeColor=none;fillColor=none;align=center;verticalAlign=middle;whiteSpace=wrap;rounded=0;fontSize=39;" parent="1" vertex="1">
          <mxGeometry x="602.5" y="425" width="60" height="30" as="geometry" />
        </mxCell>
        <mxCell id="kqU26M08DJfGydk8MjjA-59" value="$$\mathbf{V}$$" style="text;html=1;strokeColor=none;fillColor=none;align=center;verticalAlign=middle;whiteSpace=wrap;rounded=0;fontSize=39;" parent="1" vertex="1">
          <mxGeometry x="908.5" y="425" width="60" height="30" as="geometry" />
        </mxCell>
      </root>
    </mxGraphModel>
  </diagram>
  <diagram id="dTDOLVQ1BkSAKHR1pdHz" name="Pagina-2">
    <mxGraphModel dx="1808" dy="652" grid="1" gridSize="10" guides="1" tooltips="1" connect="1" arrows="1" fold="1" page="1" pageScale="1" pageWidth="1500" pageHeight="500" math="1" shadow="0">
      <root>
        <mxCell id="0" />
        <mxCell id="1" parent="0" />
        <mxCell id="vOJ2X5mSjCZ8ea1PyKnj-59" value="&amp;nbsp; &amp;nbsp; &amp;nbsp;1,&amp;nbsp; &amp;nbsp; &amp;nbsp; 0" style="text;html=1;strokeColor=none;fillColor=none;align=center;verticalAlign=middle;whiteSpace=wrap;rounded=0;" parent="1" vertex="1">
          <mxGeometry x="702" y="53" width="160" height="30" as="geometry" />
        </mxCell>
        <mxCell id="vOJ2X5mSjCZ8ea1PyKnj-14" value="" style="rounded=0;whiteSpace=wrap;html=1;fillColor=#f8cecc;strokeColor=default;strokeWidth=2;" parent="1" vertex="1">
          <mxGeometry x="396" y="80" width="120" height="20" as="geometry" />
        </mxCell>
        <mxCell id="vOJ2X5mSjCZ8ea1PyKnj-15" value="" style="rounded=0;whiteSpace=wrap;html=1;fillColor=#dae8fc;strokeColor=default;strokeWidth=2;" parent="1" vertex="1">
          <mxGeometry x="396" y="100" width="120" height="20" as="geometry" />
        </mxCell>
        <mxCell id="vOJ2X5mSjCZ8ea1PyKnj-16" value="" style="rounded=0;whiteSpace=wrap;html=1;fillColor=#d5e8d4;strokeColor=default;strokeWidth=2;" parent="1" vertex="1">
          <mxGeometry x="396" y="120" width="120" height="20" as="geometry" />
        </mxCell>
        <mxCell id="vOJ2X5mSjCZ8ea1PyKnj-17" value="" style="rounded=0;whiteSpace=wrap;html=1;fillColor=#f8cecc;strokeColor=default;strokeWidth=2;dashed=1;rotation=90;" parent="1" vertex="1">
          <mxGeometry x="486" y="100" width="120" height="20" as="geometry" />
        </mxCell>
        <mxCell id="vOJ2X5mSjCZ8ea1PyKnj-18" value="" style="rounded=0;whiteSpace=wrap;html=1;fillColor=#dae8fc;strokeColor=default;strokeWidth=2;dashed=1;rotation=90;" parent="1" vertex="1">
          <mxGeometry x="506" y="100" width="120" height="20" as="geometry" />
        </mxCell>
        <mxCell id="vOJ2X5mSjCZ8ea1PyKnj-19" value="" style="edgeStyle=orthogonalEdgeStyle;rounded=0;orthogonalLoop=1;jettySize=auto;html=1;entryX=0;entryY=0.5;entryDx=0;entryDy=0;" parent="1" source="vOJ2X5mSjCZ8ea1PyKnj-20" target="vOJ2X5mSjCZ8ea1PyKnj-24" edge="1">
          <mxGeometry relative="1" as="geometry" />
        </mxCell>
        <mxCell id="vOJ2X5mSjCZ8ea1PyKnj-20" value="" style="rounded=0;whiteSpace=wrap;html=1;fillColor=#d5e8d4;strokeColor=default;strokeWidth=2;dashed=1;rotation=90;" parent="1" vertex="1">
          <mxGeometry x="526" y="100" width="120" height="20" as="geometry" />
        </mxCell>
        <mxCell id="vOJ2X5mSjCZ8ea1PyKnj-21" value="" style="whiteSpace=wrap;html=1;aspect=fixed;strokeColor=default;strokeWidth=2;" parent="1" vertex="1">
          <mxGeometry x="639" y="80" width="20" height="20" as="geometry" />
        </mxCell>
        <mxCell id="vOJ2X5mSjCZ8ea1PyKnj-22" value="" style="whiteSpace=wrap;html=1;aspect=fixed;strokeColor=default;strokeWidth=2;" parent="1" vertex="1">
          <mxGeometry x="659" y="80" width="20" height="20" as="geometry" />
        </mxCell>
        <mxCell id="vOJ2X5mSjCZ8ea1PyKnj-23" value="" style="whiteSpace=wrap;html=1;aspect=fixed;strokeColor=default;strokeWidth=2;" parent="1" vertex="1">
          <mxGeometry x="679" y="80" width="20" height="20" as="geometry" />
        </mxCell>
        <mxCell id="vOJ2X5mSjCZ8ea1PyKnj-24" value="" style="whiteSpace=wrap;html=1;aspect=fixed;strokeColor=default;strokeWidth=2;" parent="1" vertex="1">
          <mxGeometry x="639" y="100" width="20" height="20" as="geometry" />
        </mxCell>
        <mxCell id="vOJ2X5mSjCZ8ea1PyKnj-25" value="" style="whiteSpace=wrap;html=1;aspect=fixed;strokeColor=default;strokeWidth=2;" parent="1" vertex="1">
          <mxGeometry x="659" y="100" width="20" height="20" as="geometry" />
        </mxCell>
        <mxCell id="vOJ2X5mSjCZ8ea1PyKnj-26" value="" style="whiteSpace=wrap;html=1;aspect=fixed;strokeColor=default;strokeWidth=2;" parent="1" vertex="1">
          <mxGeometry x="679" y="100" width="20" height="20" as="geometry" />
        </mxCell>
        <mxCell id="vOJ2X5mSjCZ8ea1PyKnj-27" value="" style="whiteSpace=wrap;html=1;aspect=fixed;strokeColor=default;strokeWidth=2;" parent="1" vertex="1">
          <mxGeometry x="639" y="120" width="20" height="20" as="geometry" />
        </mxCell>
        <mxCell id="vOJ2X5mSjCZ8ea1PyKnj-28" value="" style="whiteSpace=wrap;html=1;aspect=fixed;strokeColor=default;strokeWidth=2;" parent="1" vertex="1">
          <mxGeometry x="659" y="120" width="20" height="20" as="geometry" />
        </mxCell>
        <mxCell id="vOJ2X5mSjCZ8ea1PyKnj-29" value="" style="whiteSpace=wrap;html=1;aspect=fixed;strokeColor=default;strokeWidth=2;" parent="1" vertex="1">
          <mxGeometry x="679" y="120" width="20" height="20" as="geometry" />
        </mxCell>
        <mxCell id="vOJ2X5mSjCZ8ea1PyKnj-30" value="Argmax" style="rounded=1;whiteSpace=wrap;html=1;strokeColor=default;strokeWidth=2;rotation=90;fillColor=#f5f5f5;fontColor=#333333;" parent="1" vertex="1">
          <mxGeometry x="672" y="95" width="105" height="30" as="geometry" />
        </mxCell>
        <mxCell id="vOJ2X5mSjCZ8ea1PyKnj-31" value="" style="whiteSpace=wrap;html=1;aspect=fixed;strokeColor=default;strokeWidth=2;fillColor=#000000;" parent="1" vertex="1">
          <mxGeometry x="752" y="80" width="20" height="20" as="geometry" />
        </mxCell>
        <mxCell id="vOJ2X5mSjCZ8ea1PyKnj-32" value="" style="whiteSpace=wrap;html=1;aspect=fixed;strokeColor=default;strokeWidth=2;fillColor=none;" parent="1" vertex="1">
          <mxGeometry x="772" y="80" width="20" height="20" as="geometry" />
        </mxCell>
        <mxCell id="vOJ2X5mSjCZ8ea1PyKnj-33" value="" style="whiteSpace=wrap;html=1;aspect=fixed;strokeColor=default;strokeWidth=2;fillColor=none;" parent="1" vertex="1">
          <mxGeometry x="792" y="80" width="20" height="20" as="geometry" />
        </mxCell>
        <mxCell id="vOJ2X5mSjCZ8ea1PyKnj-34" value="" style="whiteSpace=wrap;html=1;aspect=fixed;strokeColor=default;strokeWidth=2;fillColor=none;" parent="1" vertex="1">
          <mxGeometry x="752" y="100" width="20" height="20" as="geometry" />
        </mxCell>
        <mxCell id="vOJ2X5mSjCZ8ea1PyKnj-35" value="" style="whiteSpace=wrap;html=1;aspect=fixed;strokeColor=default;strokeWidth=2;fillColor=none;" parent="1" vertex="1">
          <mxGeometry x="772" y="100" width="20" height="20" as="geometry" />
        </mxCell>
        <mxCell id="vOJ2X5mSjCZ8ea1PyKnj-36" value="" style="whiteSpace=wrap;html=1;aspect=fixed;strokeColor=default;strokeWidth=2;fillColor=#000000;" parent="1" vertex="1">
          <mxGeometry x="792" y="100" width="20" height="20" as="geometry" />
        </mxCell>
        <mxCell id="vOJ2X5mSjCZ8ea1PyKnj-37" value="" style="whiteSpace=wrap;html=1;aspect=fixed;strokeColor=default;strokeWidth=2;fillColor=none;" parent="1" vertex="1">
          <mxGeometry x="752" y="120" width="20" height="20" as="geometry" />
        </mxCell>
        <mxCell id="vOJ2X5mSjCZ8ea1PyKnj-38" value="" style="whiteSpace=wrap;html=1;aspect=fixed;strokeColor=default;strokeWidth=2;fillColor=none;" parent="1" vertex="1">
          <mxGeometry x="772" y="120" width="20" height="20" as="geometry" />
        </mxCell>
        <mxCell id="vOJ2X5mSjCZ8ea1PyKnj-39" value="" style="whiteSpace=wrap;html=1;aspect=fixed;strokeColor=default;strokeWidth=2;fillColor=#000000;" parent="1" vertex="1">
          <mxGeometry x="792" y="120" width="20" height="20" as="geometry" />
        </mxCell>
        <mxCell id="vOJ2X5mSjCZ8ea1PyKnj-40" value="" style="rounded=0;whiteSpace=wrap;html=1;fillColor=#f8cecc;strokeColor=default;strokeWidth=2;dashed=1;dashPattern=1 2;" parent="1" vertex="1">
          <mxGeometry x="822" y="80" width="120" height="20" as="geometry" />
        </mxCell>
        <mxCell id="vOJ2X5mSjCZ8ea1PyKnj-41" value="" style="edgeStyle=orthogonalEdgeStyle;rounded=0;orthogonalLoop=1;jettySize=auto;html=1;entryX=0.001;entryY=0.461;entryDx=0;entryDy=0;entryPerimeter=0;" parent="1" source="vOJ2X5mSjCZ8ea1PyKnj-42" edge="1">
          <mxGeometry relative="1" as="geometry">
            <mxPoint x="982.1199999999999" y="110.22000000000003" as="targetPoint" />
          </mxGeometry>
        </mxCell>
        <mxCell id="vOJ2X5mSjCZ8ea1PyKnj-42" value="" style="rounded=0;whiteSpace=wrap;html=1;fillColor=#dae8fc;strokeColor=default;strokeWidth=2;dashed=1;dashPattern=1 2;" parent="1" vertex="1">
          <mxGeometry x="822" y="100" width="120" height="20" as="geometry" />
        </mxCell>
        <mxCell id="vOJ2X5mSjCZ8ea1PyKnj-43" value="" style="rounded=0;whiteSpace=wrap;html=1;fillColor=#d5e8d4;strokeColor=default;strokeWidth=2;dashed=1;dashPattern=1 2;" parent="1" vertex="1">
          <mxGeometry x="822" y="120" width="120" height="20" as="geometry" />
        </mxCell>
        <mxCell id="vOJ2X5mSjCZ8ea1PyKnj-52" value="" style="rounded=0;whiteSpace=wrap;html=1;fillColor=#f8cecc;strokeColor=default;strokeWidth=2;dashed=1;dashPattern=1 2;" parent="1" vertex="1">
          <mxGeometry x="983.5" y="80" width="120" height="20" as="geometry" />
        </mxCell>
        <mxCell id="vOJ2X5mSjCZ8ea1PyKnj-53" value="" style="rounded=0;whiteSpace=wrap;html=1;fillColor=#d5e8d4;strokeColor=default;strokeWidth=2;dashed=1;dashPattern=1 2;" parent="1" vertex="1">
          <mxGeometry x="983.5" y="100" width="120" height="20" as="geometry" />
        </mxCell>
        <mxCell id="vOJ2X5mSjCZ8ea1PyKnj-54" value="" style="rounded=0;whiteSpace=wrap;html=1;fillColor=#d5e8d4;strokeColor=default;strokeWidth=2;dashed=1;dashPattern=1 2;" parent="1" vertex="1">
          <mxGeometry x="983.5" y="120" width="120" height="20" as="geometry" />
        </mxCell>
        <mxCell id="vOJ2X5mSjCZ8ea1PyKnj-57" value="" style="whiteSpace=wrap;html=1;aspect=fixed;strokeColor=default;strokeWidth=2;fillColor=#000000;" parent="1" vertex="1">
          <mxGeometry x="758" y="63" width="10" height="10" as="geometry" />
        </mxCell>
        <mxCell id="vOJ2X5mSjCZ8ea1PyKnj-58" value="" style="whiteSpace=wrap;html=1;aspect=fixed;strokeColor=default;strokeWidth=2;fillColor=none;" parent="1" vertex="1">
          <mxGeometry x="786" y="63" width="10" height="10" as="geometry" />
        </mxCell>
      </root>
    </mxGraphModel>
  </diagram>
</mxfile>
